<svg version="1.1" id="Layer_1" xmlns="http://www.w3.org/2000/svg" xmlns:xlink="http://www.w3.org/1999/xlink" x="0px" y="0px"
     width="100%" viewBox="0 0 1152 768" enable-background="new 0 0 1152 768" xml:space="preserve">
  <path fill="none" stroke="none" opacity="1.000000" stroke-width="1"
	d="
M733.000000,769.000000 
	C488.698395,769.000000 244.896790,769.000000 1.047590,769.000000 
	C1.047590,513.065063 1.047590,257.130066 1.047590,1.097555 
	C384.884979,1.097555 768.770020,1.097555 1152.827515,1.097555 
	C1152.827515,256.999908 1152.827515,512.999939 1152.827515,769.000000 
	C1013.129944,769.000000 873.315002,769.000000 733.000000,769.000000 
M713.502625,86.175072 
	C662.731506,66.882401 610.368164,58.676819 556.159729,64.019447 
	C500.005646,69.553833 447.587341,86.360115 400.843811,118.419716 
	C320.968658,173.202957 271.840302,247.316986 260.524078,344.798737 
	C255.381622,389.097321 260.322784,432.289795 274.691986,474.333405 
	C290.776764,521.396851 317.678772,561.845459 353.300018,596.230347 
	C412.609222,653.480957 483.487305,686.667786 565.611389,695.023132 
	C635.156616,702.098816 701.473816,691.337585 762.935852,656.747925 
	C817.522278,626.027649 860.481018,583.462036 890.147949,528.129456 
	C923.619202,465.701416 932.234619,399.373962 919.070312,330.084930 
	C912.681702,296.458557 900.526062,264.838928 883.563293,235.136551 
	C844.180847,166.176880 787.905273,116.373802 713.502625,86.175072 
z"/>
<path fill="#F4F4F4" opacity="1.000000" stroke="none" 
	d="
M713.863403,86.303513 
	C787.905273,116.373802 844.180847,166.176880 883.563293,235.136551 
	C900.526062,264.838928 912.681702,296.458557 919.070312,330.084930 
	C932.234619,399.373962 923.619202,465.701416 890.147949,528.129456 
	C860.481018,583.462036 817.522278,626.027649 762.935852,656.747925 
	C701.473816,691.337585 635.156616,702.098816 565.611389,695.023132 
	C483.487305,686.667786 412.609222,653.480957 353.300018,596.230347 
	C317.678772,561.845459 290.776764,521.396851 274.691986,474.333405 
	C260.322784,432.289795 255.381622,389.097321 260.524078,344.798737 
	C271.840302,247.316986 320.968658,173.202957 400.843811,118.419716 
	C447.587341,86.360115 500.005646,69.553833 556.159729,64.019447 
	C610.368164,58.676819 662.731506,66.882401 713.863403,86.303513 
M848.426575,568.891968 
	C871.753296,539.065491 889.608887,506.312958 900.232849,469.902679 
	C910.703064,434.019684 913.969421,397.475067 910.005859,360.156433 
	C905.397949,316.771362 892.585571,276.149597 870.900574,238.390305 
	C849.255371,200.700241 821.416077,168.347916 786.952759,141.635468 
	C731.911621,98.973175 669.136658,77.590446 600.171509,74.216522 
	C558.008362,72.153801 516.692505,78.692802 477.011139,93.277344 
	C405.070190,119.718597 349.295715,165.906387 310.525299,232.186996 
	C278.281342,287.310242 267.451324,347.045654 273.965912,410.073669 
	C281.026886,478.388702 310.599091,536.438599 358.774231,584.464600 
	C415.467712,640.982483 484.147461,674.248962 563.999023,683.375671 
	C617.711121,689.514771 670.118896,683.755798 720.551270,663.887024 
	C771.401367,643.853516 813.605774,611.855591 848.426575,568.891968 
z"/>
<path fill="transparent" opacity="1.000000" stroke="none" 
	d="
M848.203979,569.167603 
	C813.605774,611.855591 771.401367,643.853516 720.551270,663.887024 
	C670.118896,683.755798 617.711121,689.514771 563.999023,683.375671 
	C484.147461,674.248962 415.467712,640.982483 358.774231,584.464600 
	C310.599091,536.438599 281.026886,478.388702 273.965912,410.073669 
	C267.451324,347.045654 278.281342,287.310242 310.525299,232.186996 
	C349.295715,165.906387 405.070190,119.718597 477.011139,93.277344 
	C516.692505,78.692802 558.008362,72.153801 600.171509,74.216522 
	C669.136658,77.590446 731.911621,98.973175 786.952759,141.635468 
	C821.416077,168.347916 849.255371,200.700241 870.900574,238.390305 
	C892.585571,276.149597 905.397949,316.771362 910.005859,360.156433 
	C913.969421,397.475067 910.703064,434.019684 900.232849,469.902679 
	C889.608887,506.312958 871.753296,539.065491 848.203979,569.167603 
M602.846008,311.445679 
	C606.679138,255.716599 609.080139,199.955048 607.508911,143.141403 
	C570.280579,201.532028 533.729492,258.860413 496.529907,317.206024 
	C493.228485,311.495667 490.471558,307.155884 488.128082,302.603241 
	C474.342224,275.821442 460.668823,248.981781 446.881439,222.200790 
	C446.214508,220.905319 444.848389,219.044342 443.777802,219.023956 
	C431.848145,218.796860 419.912598,218.880753 407.807373,218.880753 
	C408.054871,219.533691 408.354950,220.617935 408.854462,221.600845 
	C429.675537,262.571228 450.394623,303.594482 471.497650,344.419250 
	C474.236694,349.718079 474.724731,353.510742 471.431366,358.776245 
	C449.088501,394.499115 426.924957,430.336975 405.041718,466.343262 
	C394.204681,484.174377 384.086029,502.442108 373.642365,520.512329 
	C374.218079,520.906433 374.793823,521.300598 375.369568,521.694702 
	C414.087463,473.462250 449.540344,422.712921 487.222565,373.705505 
	C507.615479,416.883698 527.813110,459.648529 548.010803,502.413330 
	C549.200378,500.924164 549.492920,499.790192 549.535217,498.647003 
	C550.440857,474.174988 551.345032,449.702789 552.139160,425.227051 
	C552.189819,423.668091 551.604492,421.947540 550.878296,420.525146 
	C537.559265,394.437256 524.376953,368.275360 510.639618,342.408569 
	C507.700317,336.873993 507.953827,332.991486 511.449585,328.094971 
	C528.578979,304.102020 545.444885,279.921173 562.444153,255.835114 
	C564.018250,253.604797 565.875366,251.574249 568.254517,248.647018 
	C569.339478,341.026581 558.953064,431.852570 560.148560,523.112671 
	C561.067017,523.035156 561.583313,523.084290 562.038208,522.939941 
	C598.305298,511.435089 635.782166,506.721893 673.439758,502.948883 
	C677.215210,502.570648 678.986328,503.751953 680.496399,507.232422 
	C687.583984,523.567932 695.252136,539.655518 702.135742,556.073608 
	C704.755432,562.321838 708.189148,564.629456 715.038574,564.257263 
	C726.755798,563.620422 738.532654,564.081421 751.948730,564.081421 
	C721.845520,522.673584 692.649902,482.514252 663.454285,442.354889 
	C662.881409,442.693573 662.308533,443.032257 661.735657,443.370941 
	C664.684143,452.078278 667.632629,460.785645 670.562073,469.436798 
	C643.094116,472.301971 616.197388,475.107544 589.170288,477.926727 
	C593.700317,422.806946 598.238403,367.589111 602.846008,311.445679 
M674.580811,343.895721 
	C672.954407,355.283997 671.328003,366.672272 669.574829,378.948090 
	C648.943604,351.429626 634.185120,321.921570 618.931396,292.651703 
	C617.797791,304.774353 617.088135,316.675629 616.548279,328.584625 
	C616.484924,329.982941 617.162354,331.521484 617.822876,332.830231 
	C629.220703,355.412415 640.291809,378.170380 652.195007,400.484192 
	C670.702148,435.177826 694.452698,466.281403 719.608704,496.344055 
	C720.781006,497.744995 722.647522,499.484100 724.208130,499.501404 
	C743.624207,499.716919 763.043640,499.642365 783.949646,499.642365 
	C779.436279,496.408112 776.079712,494.123291 772.851074,491.670166 
	C746.982849,472.015686 724.422485,449.009796 703.578796,424.155151 
	C699.087769,418.799927 697.638489,413.750244 699.296509,407.341431 
	C699.670166,405.897034 699.883667,404.407349 700.109436,402.929108 
	C707.358154,355.469421 711.466248,307.705292 713.646606,259.772644 
	C714.174255,248.172104 713.724976,236.527145 713.724976,224.225098 
	C683.588379,224.225098 652.381958,224.225098 620.927368,224.225098 
	C620.927368,234.900894 620.927368,245.658493 620.927368,257.111481 
	C640.919434,257.111481 660.615356,257.111481 681.231689,257.111481 
	C679.012390,286.250244 676.851196,314.626404 674.580811,343.895721 
z"/>
<path fill="#FAFAFA" opacity="1.000000" stroke="none" 
	d="
M602.811279,311.908508 
	C598.238403,367.589111 593.700317,422.806946 589.170288,477.926727 
	C616.197388,475.107544 643.094116,472.301971 670.562073,469.436798 
	C667.632629,460.785645 664.684143,452.078278 661.735657,443.370941 
	C662.308533,443.032257 662.881409,442.693573 663.454285,442.354889 
	C692.649902,482.514252 721.845520,522.673584 751.948730,564.081421 
	C738.532654,564.081421 726.755798,563.620422 715.038574,564.257263 
	C708.189148,564.629456 704.755432,562.321838 702.135742,556.073608 
	C695.252136,539.655518 687.583984,523.567932 680.496399,507.232422 
	C678.986328,503.751953 677.215210,502.570648 673.439758,502.948883 
	C635.782166,506.721893 598.305298,511.435089 562.038208,522.939941 
	C561.583313,523.084290 561.067017,523.035156 560.148560,523.112671 
	C558.953064,431.852570 569.339478,341.026581 568.254517,248.647018 
	C565.875366,251.574249 564.018250,253.604797 562.444153,255.835114 
	C545.444885,279.921173 528.578979,304.102020 511.449585,328.094971 
	C507.953827,332.991486 507.700317,336.873993 510.639618,342.408569 
	C524.376953,368.275360 537.559265,394.437256 550.878296,420.525146 
	C551.604492,421.947540 552.189819,423.668091 552.139160,425.227051 
	C551.345032,449.702789 550.440857,474.174988 549.535217,498.647003 
	C549.492920,499.790192 549.200378,500.924164 548.010803,502.413330 
	C527.813110,459.648529 507.615479,416.883698 487.222565,373.705505 
	C449.540344,422.712921 414.087463,473.462250 375.369568,521.694702 
	C374.793823,521.300598 374.218079,520.906433 373.642365,520.512329 
	C384.086029,502.442108 394.204681,484.174377 405.041718,466.343262 
	C426.924957,430.336975 449.088501,394.499115 471.431366,358.776245 
	C474.724731,353.510742 474.236694,349.718079 471.497650,344.419250 
	C450.394623,303.594482 429.675537,262.571228 408.854462,221.600845 
	C408.354950,220.617935 408.054871,219.533691 407.807373,218.880753 
	C419.912598,218.880753 431.848145,218.796860 443.777802,219.023956 
	C444.848389,219.044342 446.214508,220.905319 446.881439,222.200790 
	C460.668823,248.981781 474.342224,275.821442 488.128082,302.603241 
	C490.471558,307.155884 493.228485,311.495667 496.529907,317.206024 
	C533.729492,258.860413 570.280579,201.532028 607.508911,143.141403 
	C609.080139,199.955048 606.679138,255.716599 602.811279,311.908508 
z"/>
<path fill="#FAFAFB" opacity="1.000000" stroke="none" 
	d="
M674.635376,343.449127 
	C676.851196,314.626404 679.012390,286.250244 681.231689,257.111481 
	C660.615356,257.111481 640.919434,257.111481 620.927368,257.111481 
	C620.927368,245.658493 620.927368,234.900894 620.927368,224.225098 
	C652.381958,224.225098 683.588379,224.225098 713.724976,224.225098 
	C713.724976,236.527145 714.174255,248.172104 713.646606,259.772644 
	C711.466248,307.705292 707.358154,355.469421 700.109436,402.929108 
	C699.883667,404.407349 699.670166,405.897034 699.296509,407.341431 
	C697.638489,413.750244 699.087769,418.799927 703.578796,424.155151 
	C724.422485,449.009796 746.982849,472.015686 772.851074,491.670166 
	C776.079712,494.123291 779.436279,496.408112 783.949646,499.642365 
	C763.043640,499.642365 743.624207,499.716919 724.208130,499.501404 
	C722.647522,499.484100 720.781006,497.744995 719.608704,496.344055 
	C694.452698,466.281403 670.702148,435.177826 652.195007,400.484192 
	C640.291809,378.170380 629.220703,355.412415 617.822876,332.830231 
	C617.162354,331.521484 616.484924,329.982941 616.548279,328.584625 
	C617.088135,316.675629 617.797791,304.774353 618.931396,292.651703 
	C634.185120,321.921570 648.943604,351.429626 669.574829,378.948090 
	C671.328003,366.672272 672.954407,355.283997 674.635376,343.449127 
z"/>
</svg>