<svg version="1.1" id="Layer_1" xmlns="http://www.w3.org/2000/svg" xmlns:xlink="http://www.w3.org/1999/xlink" x="0px" y="0px"
	 width="100%" viewBox="0 0 939 477" enable-background="new 0 0 939 477" xml:space="preserve">
<path fill="#F8F8F8" opacity="1.000000" stroke="none" 
	d="
M472.000061,2.913418 
	C491.663727,2.936528 510.828827,3.090903 529.989868,2.879046 
	C534.129089,2.833280 536.059998,3.715274 537.847839,7.895932 
	C546.741394,28.692556 556.165894,49.263405 565.498962,69.870483 
	C579.622620,101.054771 593.848938,132.192551 607.988220,163.369781 
	C625.400452,201.763702 642.774475,240.174942 660.153259,278.583984 
	C676.856445,315.500153 693.491699,352.447144 710.265991,389.330933 
	C716.841675,403.789825 723.321167,418.314453 730.543640,432.451965 
	C741.477112,453.853394 758.433350,466.685638 783.321838,467.170746 
	C783.612549,467.176422 783.898682,467.414581 784.394287,467.637512 
	C784.520935,469.495209 784.654297,471.451263 784.833740,474.083038 
	C734.842163,474.083038 684.799194,474.083038 634.419067,474.083038 
	C634.334473,472.303223 634.228210,470.066772 634.113098,467.644409 
	C638.068787,467.158905 641.713928,466.919861 645.274170,466.237549 
	C658.770569,463.650879 668.921021,451.792175 670.150024,438.123596 
	C671.309082,425.231781 666.019775,414.085907 661.161621,402.877289 
	C643.781860,362.778992 626.167480,322.782349 608.641907,282.747223 
	C582.752197,223.605591 556.896729,164.448944 530.950684,105.332024 
	C523.704407,88.821693 516.622314,72.216064 508.658142,56.051620 
	C502.671967,43.901905 491.311218,43.555099 484.487549,55.290592 
	C476.676361,68.724533 469.857727,82.739845 462.722351,96.561668 
	C445.555969,129.814224 428.436157,163.090897 411.335388,196.377274 
	C392.872681,232.314667 374.521667,268.309570 355.995361,304.214111 
	C337.095306,340.843109 317.998108,377.370331 299.084076,413.992188 
	C294.081085,423.679077 290.310394,433.650757 292.734406,444.997040 
	C295.628510,458.543854 304.904083,466.609528 318.820282,467.158691 
	C319.625397,467.190460 320.432831,467.162872 321.607300,467.162872 
	C321.481079,469.540009 321.371216,471.609314 321.239044,474.098511 
	C270.270386,474.098511 219.528946,474.098511 168.431229,474.098511 
	C168.574783,472.359497 168.744003,470.309570 168.802734,469.598083 
	C178.555420,466.363678 188.134018,464.142914 196.857620,460.084381 
	C212.485992,452.813538 223.273209,439.941193 231.192459,425.088806 
	C271.064484,350.309570 310.723267,275.415771 350.210388,200.432434 
	C375.660919,152.103653 400.729584,103.573441 425.859528,55.076565 
	C429.999817,47.086491 433.453064,38.688068 432.354492,29.395967 
	C430.863770,16.786985 421.556885,8.653142 406.252045,6.015675 
	C404.762268,5.758939 403.300781,5.338168 401.826141,4.993542 
	C401.897186,4.300191 401.968231,3.606842 402.039276,2.913492 
	C425.192841,2.913492 448.346436,2.913492 472.000061,2.913418 
z"/>
<path fill="#F8F8F8" opacity="1.000000" stroke="none" 
	d="
M457.193939,474.311218 
	C441.237335,474.312714 425.758545,474.312714 410.033508,474.312714 
	C410.033508,472.497620 410.033508,470.738159 410.033508,468.722656 
	C432.366608,463.626740 446.607086,447.971130 457.743713,429.835083 
	C471.921204,406.747009 484.923004,382.881348 497.380859,358.807159 
	C512.718079,329.168701 526.467224,298.748688 537.525146,267.194885 
	C538.398193,264.703735 539.050598,262.135315 539.884094,259.339294 
	C554.085449,259.339294 568.261902,259.339294 582.797607,259.339294 
	C561.214478,284.594940 550.982239,315.428802 538.354553,344.924316 
	C528.664246,367.558838 520.159729,390.709900 511.479645,413.763702 
	C508.032593,422.918823 505.498596,432.363037 506.823883,442.460236 
	C508.594116,455.946960 517.775024,465.334839 531.423279,467.098267 
	C532.544678,467.243134 533.640259,467.588562 534.817444,467.856720 
	C534.817444,469.903351 534.817444,471.719330 534.817444,474.309753 
	C509.169586,474.309753 483.420654,474.309753 457.193939,474.311218 
z"/>
</svg>
